<svg xmlns="http://www.w3.org/2000/svg" xmlns:xlink="http://www.w3.org/1999/xlink" width="63" height="64" viewBox="0 0 63 64"><defs><style>.a{fill:#c44829;}.b{clip-path:url(#a);}</style><clipPath id="a"><rect class="a" width="63" height="64" transform="translate(0.265 0.105)"/></clipPath></defs><g class="b" transform="translate(-0.265 -0.105)"><g transform="translate(2.216 10.046)"><path class="a" d="M55.377,12.933H4.186A4.191,4.191,0,0,0,0,17.12V52.427a4.191,4.191,0,0,0,4.186,4.186H55.377a4.191,4.191,0,0,0,4.186-4.186V17.12A4.191,4.191,0,0,0,55.377,12.933Zm2.2,39.494a2.2,2.2,0,0,1-2.2,2.2H4.186a2.2,2.2,0,0,1-2.2-2.2V17.12a2.2,2.2,0,0,1,2.2-2.2H55.377a2.2,2.2,0,0,1,2.2,2.2Z" transform="translate(0 -12.933)"/><path class="a" d="M19.627,59.817H10.693a.993.993,0,0,0,0,1.985h8.935a.993.993,0,0,0,0-1.985Z" transform="translate(-3.744 -31.028)"/><path class="a" d="M40.644,59.817H31.709a.993.993,0,0,0,0,1.985h8.935a.993.993,0,0,0,0-1.985Z" transform="translate(-11.855 -31.028)"/><path class="a" d="M11.685,67.9h-.993a.993.993,0,1,0,0,1.985h.993a.993.993,0,1,0,0-1.985Z" transform="translate(-3.744 -34.147)"/><path class="a" d="M20.762,67.9H18.776a.993.993,0,1,0,0,1.985h1.985a.993.993,0,1,0,0-1.985Z" transform="translate(-6.863 -34.147)"/><path class="a" d="M29.469,67.9h-.993a.993.993,0,1,0,0,1.985h.993a.993.993,0,1,0,0-1.985Z" transform="translate(-10.607 -34.147)"/><path class="a" d="M38.545,67.9H36.559a.993.993,0,1,0,0,1.985h1.985a.993.993,0,1,0,0-1.985Z" transform="translate(-13.727 -34.147)"/><path class="a" d="M45.555,68.2a.993.993,0,1,0,1.41,0A1.039,1.039,0,0,0,45.555,68.2Z" transform="translate(-17.47 -34.155)"/><path class="a" d="M68.865,53.35a6.9,6.9,0,0,0-3.475.94,6.949,6.949,0,1,0,0,12.018A6.946,6.946,0,1,0,68.865,53.35ZM66.879,60.3a4.944,4.944,0,0,1-1.489,3.536,4.943,4.943,0,0,1,0-7.072A4.944,4.944,0,0,1,66.879,60.3Zm-9.927,0a4.969,4.969,0,0,1,4.964-4.964,4.91,4.91,0,0,1,1.774.343,6.906,6.906,0,0,0,0,9.242,4.909,4.909,0,0,1-1.774.342A4.969,4.969,0,0,1,56.952,60.3Zm11.913,4.964a4.909,4.909,0,0,1-1.774-.342,6.906,6.906,0,0,0,0-9.242,4.91,4.91,0,0,1,1.774-.343,4.964,4.964,0,1,1,0,9.927Z" transform="translate(-21.214 -28.532)"/><path class="a" d="M11.939,39.765H25.33a2.242,2.242,0,0,0,2.239-2.239V28.105a2.242,2.242,0,0,0-2.239-2.239H11.939A2.242,2.242,0,0,0,9.7,28.105v9.421A2.242,2.242,0,0,0,11.939,39.765Zm3.718-5.956H11.685V31.823h3.971Zm-3.971,3.718V35.794h3.971v1.732a2.144,2.144,0,0,0,.026.253H11.939A.253.253,0,0,1,11.685,37.526Zm13.9-3.718H21.613V32.076a.253.253,0,0,1,.253-.253H25.33a2.148,2.148,0,0,0,.253-.026Zm-.253,3.971H21.587a2.143,2.143,0,0,0,.026-.253V35.794h3.971v1.732A.253.253,0,0,1,25.33,37.779Zm0-9.927a.253.253,0,0,1,.253.253v1.479a.253.253,0,0,1-.253.253H21.866a2.242,2.242,0,0,0-2.239,2.239v5.45a.253.253,0,0,1-.253.253H17.895a.253.253,0,0,1-.253-.253V28.105a.253.253,0,0,1,.253-.253Zm-13.392,0h3.744a2.144,2.144,0,0,0-.026.253v1.732H11.685V28.105A.253.253,0,0,1,11.939,27.852Z" transform="translate(-3.744 -17.925)"/></g></g></svg>