<svg xmlns="http://www.w3.org/2000/svg" xmlns:xlink="http://www.w3.org/1999/xlink" width="97" height="97" viewBox="0 0 97 97"><defs><style>.a{fill:#093050;}.b{clip-path:url(#a);}</style><clipPath id="a"><rect class="a" width="97" height="97" transform="translate(28 274)"/></clipPath></defs><g class="b" transform="translate(-28 -274)"><g transform="translate(28 274)"><path class="a" d="M82.418,32.414H1.389A1.387,1.387,0,0,0,0,33.8V72.7a1.387,1.387,0,0,0,1.386,1.389h55.1a1.389,1.389,0,1,0,0-2.778H2.778V35.192H81.026v3.473a1.387,1.387,0,0,0,1.386,1.389h0A1.387,1.387,0,0,0,83.8,38.668V33.8A1.387,1.387,0,0,0,82.418,32.414Z"/><path class="a" d="M73,25.966,8.176,11.381a1.389,1.389,0,0,0-1.661,1.053L3.273,27.019a1.389,1.389,0,1,0,2.713.6L8.924,14.4,72.387,28.675a1.31,1.31,0,0,0,.306.034,1.389,1.389,0,0,0,.3-2.744Z"/><path class="a" d="M65.126,17.93,26.233,1.724a1.394,1.394,0,0,0-1.783.663L21.209,8.869a1.394,1.394,0,1,0,2.452,1.326q.022-.04.041-.081v0L26.361,4.8,64.053,20.5a1.392,1.392,0,1,0,1.073-2.57Z"/><path class="a" d="M66.108,38.9H53.246a1.389,1.389,0,0,0,0,2.778H66.108a1.389,1.389,0,0,0,0-2.778Z"/><path class="a" d="M40.281,38.989A14.261,14.261,0,1,0,54.542,53.249,14.261,14.261,0,0,0,40.281,38.989Zm0,25.928A11.668,11.668,0,1,1,51.949,53.249,11.668,11.668,0,0,1,40.281,64.917Z"/><path class="a" d="M79.174,43.526c-8.589,0-17.826,2.029-17.826,6.482V88.9c0,4.453,9.237,6.482,17.826,6.482S97,93.354,97,88.9V50.008C97,45.555,87.763,43.526,79.174,43.526Zm14.585,45.35c-.245.9-5.1,3.265-14.585,3.265S64.834,89.776,64.589,88.9V86.353c3.448,1.737,9.145,2.547,14.585,2.547s11.138-.818,14.585-2.549Zm0-6.482c-.245.9-5.1,3.265-14.585,3.265s-14.34-2.366-14.585-3.241V79.871c3.448,1.737,9.145,2.547,14.585,2.547S90.312,81.6,93.759,79.87Zm0-6.482c-.245.9-5.1,3.265-14.585,3.265s-14.34-2.366-14.585-3.241V73.389c3.448,1.737,9.145,2.547,14.585,2.547s11.138-.818,14.585-2.549Zm0-6.482c-.245.9-5.1,3.265-14.585,3.265s-14.34-2.366-14.585-3.241V66.907c3.448,1.737,9.145,2.547,14.585,2.547s11.138-.818,14.585-2.549Zm0-6.482c-.245.9-5.1,3.265-14.585,3.265s-14.34-2.366-14.585-3.241V60.425c3.448,1.729,9.145,2.547,14.585,2.547s11.138-.818,14.585-2.549Zm0-6.482c-.245.9-5.1,3.265-14.585,3.265s-14.34-2.366-14.585-3.241V53.943c3.448,1.729,9.145,2.547,14.585,2.547s11.138-.818,14.585-2.549ZM79.174,53.249c-9.466,0-14.324-2.359-14.585-3.212v-.01c.261-.9,5.119-3.261,14.585-3.261,9.4,0,14.261,2.324,14.585,3.241C93.435,50.925,88.573,53.249,79.174,53.249Z"/><path class="a" d="M27.317,64.823H15.068L9.26,58.471V47.937l6.414-6.263H27.317a1.389,1.389,0,1,0,0-2.778H15.11a1.39,1.39,0,0,0-.972.394L6.9,46.351a1.741,1.741,0,0,0-.418,1.134V59.01a1.39,1.39,0,0,0,.363.937l6.584,7.2a1.389,1.389,0,0,0,1.026.452H27.317a1.389,1.389,0,1,0,0-2.778Z"/></g></g></svg>