<svg xmlns="http://www.w3.org/2000/svg" xmlns:xlink="http://www.w3.org/1999/xlink" width="66" height="66" viewBox="0 0 66 66"><defs><style>.a,.c{fill:#c44829;}.a{stroke:#707070;}.b{clip-path:url(#a);}</style><clipPath id="a"><rect class="a" width="66" height="66" transform="translate(0.282 -0.187)"/></clipPath></defs><g class="b" transform="translate(-0.282 0.187)"><g transform="translate(-0.193 1.508)"><path class="c" d="M57.628,47.89H53.052l.242-5.074a2.105,2.105,0,0,0-2.1-2.205H4.879a2.105,2.105,0,0,0-2.1,2.205L3.71,62.423A12.42,12.42,0,0,0,11.08,73.2H2.105a2.105,2.105,0,0,0,0,4.21H54.261a2.105,2.105,0,0,0,0-4.21H44.991a12.427,12.427,0,0,0,6.951-8.116h5.687a8.6,8.6,0,1,0,0-17.193ZM39.937,70.058h-23.8a8.217,8.217,0,0,1-8.217-7.835l-.829-17.4h41.9l-.829,17.4A8.217,8.217,0,0,1,39.937,70.058Zm17.692-9.186H52.434l.418-8.776c.031,0,.062,0,.094,0h4.683a4.386,4.386,0,1,1,0,8.772Z" transform="translate(0 -14.585)"/><path class="c" d="M29.978,25.065A2.105,2.105,0,1,0,32.12,21.44a4.86,4.86,0,0,1-2.22-3.5,5.221,5.221,0,0,1,1.115-4.253l.025-.029q.344-.4.685-.791c1.947-2.236,3.961-4.548,4.54-7.913a2.105,2.105,0,0,0-4.149-.714c-.379,2.2-1.855,3.9-3.565,5.861q-.346.4-.7.8a9.467,9.467,0,0,0-2.115,7.686A9.045,9.045,0,0,0,29.978,25.065Z" transform="translate(-8.129 -2.491)"/><path class="c" d="M41.3,20.311a10.82,10.82,0,0,0,3.492,4.616,2.105,2.105,0,1,0,2.552-3.348,6.644,6.644,0,0,1-2.119-2.791c-.821-2.113-.043-4.219,2.6-7.042a13.03,13.03,0,0,0,3.464-6.817,2.105,2.105,0,1,0-4.158-.663,8.728,8.728,0,0,1-2.379,4.6C43.368,10.341,39.168,14.827,41.3,20.311Z" transform="translate(-12.915 -2.491)"/></g></g></svg>