<svg xmlns="http://www.w3.org/2000/svg" xmlns:xlink="http://www.w3.org/1999/xlink" width="7" height="7" viewBox="0 0 7 7"><defs><style>.a,.c{fill:#c44829;}.a{stroke:#707070;}.b{opacity:0;clip-path:url(#a);}</style><clipPath id="a"><rect class="a" width="7" height="7" transform="translate(-0.313 0.09)"/></clipPath></defs><g class="b" transform="translate(0.313 -0.09)"><g transform="translate(-0.296 0.08)"><path class="c" d="M6.535,2.386a.424.424,0,0,0,.417-.4A.372.372,0,0,0,6.846,1.7a.354.354,0,0,0-.184-.1.357.357,0,0,0-.376-.293.42.42,0,0,0-.375.555l-.15.151a.78.78,0,0,0-.334.111c-.045.025-.089.052-.132.078s-.112.068-.168.1c.021-.061.04-.121.055-.178a1.281,1.281,0,0,0,.038-.609,1.2,1.2,0,0,0-.1-.3l.1-.207h.007A.409.409,0,0,0,5.585.771.4.4,0,0,0,5.418.234.356.356,0,0,0,5.212.2.36.36,0,0,0,5.062.061a.392.392,0,0,0-.519.2A.414.414,0,0,0,4.59.7L4.5.893a.78.78,0,0,0-.28.217c-.035.039-.067.079-.1.118a1.188,1.188,0,0,1-.255.256,1.772,1.772,0,0,1-.461.191l-.037.012c-.75.232-.866.612-.81.919a1.99,1.99,0,0,0-.369.306,2.237,2.237,0,0,0-.552,1.56H1.605a.46.46,0,0,0-.864-.088.46.46,0,0,0-.561.2.468.468,0,0,0-.007.462.468.468,0,0,0-.049.682.352.352,0,0,0-.1.388.346.346,0,0,0,.327.23H.357a.814.814,0,0,0,.8.7H5.791a.814.814,0,0,0,.8-.7H6.6a.346.346,0,0,0,.326-.229.352.352,0,0,0-.1-.388.647.647,0,0,0,.1-.561.639.639,0,0,0-.383-.417A2.142,2.142,0,0,0,6.5,4.4,2.386,2.386,0,0,0,6.014,3.4a1.2,1.2,0,0,0,.229-.872l.16-.161a.377.377,0,0,0,.132.025ZM6.174,1.6A.184.184,0,0,1,6.3,1.543a.133.133,0,0,1,.142.155.111.111,0,0,0,0,.014.108.108,0,0,0,0,.014s0,.006,0,.009a.117.117,0,0,0,.007.022.09.09,0,0,0,.023.036.1.1,0,0,0,.018.016l.018.009.023.008.009,0h.027a.131.131,0,0,1,.112.034.134.134,0,0,1,.042.11.188.188,0,0,1-.055.124.166.166,0,0,1-.215.029l-.01,0a.113.113,0,0,0-.026-.013L6.4,2.1a.115.115,0,0,0-.026,0l-.019,0-.022.008L6.3,2.135l-.133.135a.536.536,0,0,0-.083-.122.459.459,0,0,0-.067-.058l.119-.121.008-.012a.108.108,0,0,0,.013-.019A.155.155,0,0,0,6.167,1.9a.119.119,0,0,0,0-.026.107.107,0,0,0,0-.017.117.117,0,0,0-.012-.026.109.109,0,0,0,0-.01A.17.17,0,0,1,6.174,1.6ZM4.751.364a.165.165,0,0,1,.21-.093.139.139,0,0,1,.072.1l.006.013a.1.1,0,0,0,0,.013s0,0,.006.008a.112.112,0,0,0,.014.019l.016.015L5.1.447l.021.008.021,0h.033L5.184.453l.013,0a.136.136,0,0,1,.121,0,.168.168,0,0,1,.059.224.167.167,0,0,1-.194.1h-.01a.11.11,0,0,0-.029,0l-.017,0A.114.114,0,0,0,5.1.774l-.017.01a.094.094,0,0,0-.033.034L5.044.828,4.962,1A.558.558,0,0,0,4.843.912.462.462,0,0,0,4.762.88L4.835.727a.112.112,0,0,0,0-.013A.1.1,0,0,0,4.844.667a.122.122,0,0,0,0-.02.11.11,0,0,0-.01-.023L4.823.608A.118.118,0,0,0,4.8.587S4.8.582,4.795.58A.17.17,0,0,1,4.751.364ZM3.434,1.911,3.47,1.9a1.954,1.954,0,0,0,.52-.219,1.384,1.384,0,0,0,.306-.3c.03-.037.061-.075.093-.111A.479.479,0,0,1,4.61,1.1a.168.168,0,0,1,.126.017.352.352,0,0,1,.093.075.438.438,0,0,1,.051.07l.007.013a.909.909,0,0,1,.106.283,1.044,1.044,0,0,1-.034.5,3.1,3.1,0,0,1-.109.322,2.2,2.2,0,0,1-.342.006,2.4,2.4,0,0,0-1.735.094c0-.161.1-.4.66-.573ZM1.158,4.355a.23.23,0,0,1,.214.149,1.032,1.032,0,0,0-.358.167.457.457,0,0,0-.08-.144.229.229,0,0,1,.223-.172Zm-.579.234a.234.234,0,0,1,.232.234v.021A.183.183,0,0,1,.8,4.875,1.058,1.058,0,0,0,.7,5.043l0,.009a1.054,1.054,0,0,0-.113.474v.117H.463A.234.234,0,0,1,.382,5.19l0,0L.4,5.177a.117.117,0,0,0,.023-.016l0,0,.008-.014a.111.111,0,0,0,.013-.021A.118.118,0,0,0,.454,5.1a.12.12,0,0,0,0-.022.125.125,0,0,0,0-.024.105.105,0,0,0,0-.016s0,0,0,0a.115.115,0,0,0-.012-.02A.112.112,0,0,0,.424,5l0,0a.229.229,0,0,1-.074-.17.233.233,0,0,1,.232-.234ZM5.791,6.813H1.158a.571.571,0,0,1-.11-.012l-.034-.009a.594.594,0,0,1-.07-.022L.907,6.753A.582.582,0,0,1,.85,6.721L.815,6.7a.566.566,0,0,1-.049-.041l-.03-.03A.615.615,0,0,1,.7,6.576C.687,6.565.679,6.554.671,6.543a.6.6,0,0,1-.033-.062C.633,6.47.626,6.46.622,6.448a.59.59,0,0,1-.03-.1.033.033,0,0,0,0-.006H6.359a.582.582,0,0,1-.568.468Zm.811-.7H.347a.117.117,0,0,1,0-.234H6.6a.117.117,0,0,1,0,.234Zm.116-.761a.4.4,0,0,1-.126.293H6.373a2.1,2.1,0,0,0,.161-.636.408.408,0,0,1,.184.343ZM6.31,4.768a1.863,1.863,0,0,1-.193.874H.811V5.526a.816.816,0,0,1,.811-.819h.022a3.178,3.178,0,0,0,.049.375.116.116,0,0,0,.114.094l.023,0a.116.116,0,0,0,.074-.05.118.118,0,0,0,.017-.088,2.87,2.87,0,0,1-.053-.45,2.054,2.054,0,0,1,.488-1.511A1.837,1.837,0,0,1,3.721,2.5a.683.683,0,0,0-.172.119.659.659,0,0,0-.191.493,1.815,1.815,0,0,0,.312,1.067.841.841,0,0,0,.7.382h.017a2.329,2.329,0,0,0,1.486-.977,2.134,2.134,0,0,1,.4.861,1.912,1.912,0,0,1,.037.318Zm-.3-1.958a1.03,1.03,0,0,1-.2.462c-.273.4-.905,1.05-1.435,1.06H4.369a.615.615,0,0,1-.512-.287,1.579,1.579,0,0,1-.266-.928.428.428,0,0,1,.119-.325.885.885,0,0,1,.62-.172l.1,0H4.5a1.85,1.85,0,0,0,.532-.034A1.4,1.4,0,0,0,5.416,2.4c.041-.025.082-.05.124-.074.229-.127.315-.086.375-.022a.325.325,0,0,1,.062.1.824.824,0,0,1,.035.4Zm0,0" transform="translate(0 -0.027)"/><path class="c" d="M39.629,53.754a1.809,1.809,0,0,0-.381,1.253.116.116,0,1,0,.232,0,1.633,1.633,0,0,1,.314-1.088.118.118,0,0,0,0-.164.115.115,0,0,0-.162,0Zm0,0" transform="translate(-37.047 -50.679)"/><path class="c" d="M39.364,82.626a.116.116,0,0,0-.116.117v.117a.116.116,0,1,0,.232,0v-.117A.116.116,0,0,0,39.364,82.626Zm0,0" transform="translate(-37.047 -77.947)"/></g></g></svg>