<svg xmlns="http://www.w3.org/2000/svg" xmlns:xlink="http://www.w3.org/1999/xlink" width="97" height="97" viewBox="0 0 97 97"><defs><style>.a,.c{fill:#c44829;}.a{stroke:#707070;}.b{clip-path:url(#a);}</style><clipPath id="a"><rect class="a" width="97" height="97" transform="translate(-0.458 0.006)"/></clipPath></defs><g class="b" transform="translate(0.458 -0.006)"><g transform="translate(0.363 -0.007)"><path class="c" d="M90.071,32.548a5.842,5.842,0,0,0,5.747-5.566,5.133,5.133,0,0,0-1.461-3.9,4.884,4.884,0,0,0-2.539-1.334,4.92,4.92,0,0,0-5.178-4.042,5.791,5.791,0,0,0-5.163,7.648L79.414,27.44a10.749,10.749,0,0,0-4.6,1.529c-.618.342-1.221.711-1.825,1.079-.78.484-1.541.938-2.311,1.328.283-.84.546-1.67.755-2.451a17.662,17.662,0,0,0,.517-8.388,16.473,16.473,0,0,0-1.437-4.129l1.365-2.855c.034,0,.067.008.1.008a5.638,5.638,0,0,0,5-3.276,5.512,5.512,0,0,0-2.3-7.391,4.9,4.9,0,0,0-2.838-.411A4.958,4.958,0,0,0,69.762.5,5.406,5.406,0,0,0,62.6,3.278a5.71,5.71,0,0,0,.653,6.052L62,11.974a10.75,10.75,0,0,0-3.859,2.984c-.479.532-.921,1.082-1.368,1.633a16.368,16.368,0,0,1-3.512,3.534A24.428,24.428,0,0,1,46.9,22.756l-.509.162c-10.331,3.2-11.937,8.436-11.161,12.662A27.422,27.422,0,0,0,30.136,39.8c-4.961,5.246-7.609,12.843-7.609,21.5h-.178c-.075,0-.149.01-.224.012A6.346,6.346,0,0,0,10.216,60.1,6.343,6.343,0,0,0,2.485,62.81a6.448,6.448,0,0,0-.091,6.371,6.444,6.444,0,0,0-.669,9.4A4.85,4.85,0,0,0,.286,83.933a4.771,4.771,0,0,0,4.5,3.174h.128a11.212,11.212,0,0,0,11.047,9.678H79.82a11.213,11.213,0,0,0,11.047-9.678H91a4.772,4.772,0,0,0,4.494-3.152,4.852,4.852,0,0,0-1.4-5.345,8.912,8.912,0,0,0,1.332-7.727,8.8,8.8,0,0,0-5.274-5.754,29.517,29.517,0,0,0-.563-4.786,32.885,32.885,0,0,0-6.7-13.889,16.475,16.475,0,0,0,3.161-12.02l2.2-2.226a5.2,5.2,0,0,0,1.823.34ZM85.088,21.7a2.541,2.541,0,0,1,1.69-.773,1.828,1.828,0,0,1,1.961,2.132,1.533,1.533,0,0,0,.014.192,1.486,1.486,0,0,0-.014.189c0,.045.031.082.039.126a1.619,1.619,0,0,0,.1.3,1.246,1.246,0,0,0,.319.493,1.4,1.4,0,0,0,.246.215,1.446,1.446,0,0,0,.251.131,1.514,1.514,0,0,0,.319.1c.045.008.08.035.126.042.061,0,.122-.008.182-.016a1.545,1.545,0,0,0,.194.016,1.8,1.8,0,0,1,1.54.463,1.846,1.846,0,0,1,.574,1.516,2.593,2.593,0,0,1-.764,1.712,2.287,2.287,0,0,1-2.968.4c-.043-.032-.093-.038-.137-.066a1.554,1.554,0,0,0-.36-.173,1.434,1.434,0,0,0-.229-.045,1.257,1.257,0,0,0-.62.032,1.465,1.465,0,0,0-.308.108l-.428.287-1.836,1.86a7.392,7.392,0,0,0-1.144-1.686,6.328,6.328,0,0,0-.92-.8l1.644-1.662a1.408,1.408,0,0,0,.109-.161,1.488,1.488,0,0,0,.175-.266A2.134,2.134,0,0,0,85,25.8a1.636,1.636,0,0,0-.019-.363,1.475,1.475,0,0,0-.045-.233,1.609,1.609,0,0,0-.166-.365A1.5,1.5,0,0,0,84.7,24.7a2.349,2.349,0,0,1,.385-3ZM65.476,4.68a2.271,2.271,0,0,1,2.9-1.276,1.914,1.914,0,0,1,1,1.344,1.512,1.512,0,0,0,.077.173,1.347,1.347,0,0,0,.046.185c.02.042.058.066.081.106a1.544,1.544,0,0,0,.2.256,1.529,1.529,0,0,0,.217.208,1.618,1.618,0,0,0,1.159.3.925.925,0,0,0,.128,0,1.54,1.54,0,0,0,.17-.077,1.372,1.372,0,0,0,.182-.047A1.881,1.881,0,0,1,73.287,5.8,2.314,2.314,0,0,1,74.1,8.885a2.3,2.3,0,0,1-2.674,1.367c-.048-.016-.094,0-.143-.016a1.523,1.523,0,0,0-.4-.045,1.682,1.682,0,0,0-.236.033,1.574,1.574,0,0,0-.342.1,1.65,1.65,0,0,0-.231.136,1.3,1.3,0,0,0-.449.464,1.548,1.548,0,0,0-.115.153l-1.131,2.37a7.685,7.685,0,0,0-1.633-1.219,6.365,6.365,0,0,0-1.117-.444l1-2.105A1.547,1.547,0,0,0,66.68,9.5a1.32,1.32,0,0,0,.083-.645,1.685,1.685,0,0,0-.04-.278,1.518,1.518,0,0,0-.134-.323,1.592,1.592,0,0,0-.119-.21,1.628,1.628,0,0,0-.284-.289c-.039-.031-.059-.075-.1-.1a2.345,2.345,0,0,1-.608-2.971ZM47.323,26l.508-.161A26.936,26.936,0,0,0,55,22.821a19.072,19.072,0,0,0,4.222-4.18c.417-.516.837-1.031,1.277-1.531a6.606,6.606,0,0,1,3.033-2.258,2.317,2.317,0,0,1,1.735.24,4.857,4.857,0,0,1,1.277,1.028,6.039,6.039,0,0,1,.709.968,1.557,1.557,0,0,0,.094.184,12.524,12.524,0,0,1,1.46,3.9,14.394,14.394,0,0,1-.469,6.906,42.657,42.657,0,0,1-1.5,4.438,30.286,30.286,0,0,1-4.708.08,33.048,33.048,0,0,0-23.911,1.291c-.019-2.22,1.322-5.481,9.1-7.891ZM15.962,59.685a3.172,3.172,0,0,1,2.952,2.05,14.221,14.221,0,0,0-4.931,2.305,6.292,6.292,0,0,0-1.1-1.984,3.159,3.159,0,0,1,3.079-2.371ZM7.981,62.911a3.231,3.231,0,0,1,3.193,3.226l-.015.284a2.521,2.521,0,0,1-.085.423A14.58,14.58,0,0,0,9.593,69.16a1.332,1.332,0,0,0-.059.127,14.526,14.526,0,0,0-1.553,6.528v1.613h-1.6a3.231,3.231,0,0,1-1.117-6.245c.015,0,.024-.018.04-.024a1.51,1.51,0,0,0,.229-.143,1.615,1.615,0,0,0,.311-.224c.015-.015.034-.019.048-.035a1.3,1.3,0,0,0,.115-.192,1.532,1.532,0,0,0,.174-.292,1.624,1.624,0,0,0,.074-.295,1.659,1.659,0,0,0,.045-.3,1.727,1.727,0,0,0-.05-.334,1.454,1.454,0,0,0-.035-.224c0-.021-.024-.034-.032-.053a1.591,1.591,0,0,0-.159-.276,1.547,1.547,0,0,0-.185-.256c-.016-.016-.021-.037-.037-.052a3.153,3.153,0,0,1-1.017-2.342,3.209,3.209,0,0,1,3.193-3.226ZM79.82,93.559H15.962a7.871,7.871,0,0,1-1.516-.161c-.159-.032-.319-.087-.471-.129a8.184,8.184,0,0,1-.958-.3c-.175-.071-.341-.162-.511-.242a8.018,8.018,0,0,1-.789-.432c-.16-.107-.319-.22-.479-.337a7.794,7.794,0,0,1-.673-.561c-.144-.132-.284-.268-.417-.411a8.484,8.484,0,0,1-.565-.69c-.112-.154-.229-.3-.33-.461a8.21,8.21,0,0,1-.461-.855c-.072-.15-.16-.292-.219-.447a8.131,8.131,0,0,1-.414-1.344.452.452,0,0,0-.025-.083H87.642a8.016,8.016,0,0,1-7.822,6.454ZM91,83.881H4.788a1.613,1.613,0,0,1,0-3.226H91a1.613,1.613,0,0,1,0,3.226Zm1.6-10.485a5.549,5.549,0,0,1-1.739,4.033h-3.02a29.011,29.011,0,0,0,2.222-8.767A5.624,5.624,0,0,1,92.591,73.4Zm-5.619-8.017a25.675,25.675,0,0,1-2.653,12.05H11.174V75.816A11.247,11.247,0,0,1,22.349,64.524h.3a43.8,43.8,0,0,0,.674,5.162,1.6,1.6,0,0,0,1.565,1.291,1.546,1.546,0,0,0,.319-.032,1.6,1.6,0,0,0,1.014-.69,1.628,1.628,0,0,0,.233-1.213,39.561,39.561,0,0,1-.736-6.2c-.334-8.478,2.061-15.87,6.727-20.818a25.32,25.32,0,0,1,18.846-7.851,9.42,9.42,0,0,0-2.368,1.641,9.081,9.081,0,0,0-2.626,6.8,25.012,25.012,0,0,0,4.3,14.711,11.589,11.589,0,0,0,9.617,5.265h.235c7.936-.15,16.014-7.84,20.476-13.464a29.406,29.406,0,0,1,5.541,11.867,26.352,26.352,0,0,1,.512,4.388ZM82.853,38.393a14.194,14.194,0,0,1-2.691,6.361c-3.769,5.576-12.475,14.47-19.777,14.609h-.17A8.471,8.471,0,0,1,53.159,55.4a21.76,21.76,0,0,1-3.671-12.791,5.9,5.9,0,0,1,1.644-4.475c1.625-1.578,4.5-2.376,8.542-2.376.428,0,.872.01,1.325.027l.444.018c.145,0,.292.008.436.015h.08a25.5,25.5,0,0,0,7.329-.474,19.276,19.276,0,0,0,5.353-2.542c.563-.344,1.131-.69,1.71-1.013,3.153-1.75,4.347-1.182,5.166-.308a4.479,4.479,0,0,1,.859,1.377,11.359,11.359,0,0,1,.477,5.531Zm0,0" transform="translate(0 -0.027)"/><path class="c" d="M44.505,54.182c-.216.216-5.257,5.447-5.257,17.271a1.6,1.6,0,1,0,3.193,0c0-10.313,4.229-14.892,4.328-15a1.626,1.626,0,0,0-.026-2.262,1.586,1.586,0,0,0-2.238-.013Zm0,0" transform="translate(-8.917 -11.794)"/><path class="c" d="M40.845,82.626a1.6,1.6,0,0,0-1.6,1.613v1.613a1.6,1.6,0,1,0,3.193,0V84.24A1.6,1.6,0,0,0,40.845,82.626Zm0,0" transform="translate(-8.917 -18.129)"/></g></g></svg>