<svg xmlns="http://www.w3.org/2000/svg" xmlns:xlink="http://www.w3.org/1999/xlink" width="66" height="66" viewBox="0 0 66 66"><defs><style>.a,.c{fill:#c44829;}.a{stroke:#707070;}.b{clip-path:url(#a);}</style><clipPath id="a"><rect class="a" width="66" height="66" transform="translate(-0.443 0.026)"/></clipPath></defs><g class="b" transform="translate(0.442 -0.026)"><g transform="translate(-1.646 2.111)"><path class="c" d="M68.859,6.6a2.394,2.394,0,0,0-2.684-.447L52.011,12.439c-.081.037-.159.079-.241.116a29.2,29.2,0,0,0-32.84-.73L14.237,7.131a2.737,2.737,0,0,0-1.923-.81,2.538,2.538,0,0,0-1.936.786,2.733,2.733,0,0,0,.025,3.858L18.635,19.2l-.767.767L9.636,11.732a2.73,2.73,0,0,0-3.857-.023,2.674,2.674,0,0,0-.787,1.933A2.738,2.738,0,0,0,5.8,15.565L14.034,23.8l-.767.768L5.036,16.331A2.713,2.713,0,1,0,1.2,20.165L7.334,26.3A29.253,29.253,0,0,0,12.62,55.486L7.77,60.338A4.324,4.324,0,0,0,6.487,63.13,3.578,3.578,0,0,0,10.1,67c.081,0,.163,0,.244-.008a4.33,4.33,0,0,0,2.792-1.283l5.152-5.152a29.184,29.184,0,0,0,31.784.815l5.038,5.038a3.861,3.861,0,0,0,2.7,1.14h.041a3.745,3.745,0,0,0,2.666-1.1,3.829,3.829,0,0,0-.04-5.405l-4.463-4.463A29.213,29.213,0,0,0,58.96,19.884l9.775-9.775A2.486,2.486,0,0,0,68.859,6.6ZM34.811,9.294a26.881,26.881,0,0,1,14.765,4.389,27.217,27.217,0,0,0-4.771,3.477,21.622,21.622,0,0,0-20.34.194L20.5,13.4a26.95,26.95,0,0,1,14.313-4.1Zm-32.1,8.548a.457.457,0,0,1,.381-.153.593.593,0,0,1,.41.176l9,9a1.116,1.116,0,0,0,1.533,0l2.3-2.3a1.084,1.084,0,0,0,0-1.533l-9-9a.584.584,0,0,1-.178-.41.532.532,0,0,1,.152-.378.561.561,0,0,1,.38-.153.594.594,0,0,1,.411.176l9,9a1.084,1.084,0,0,0,1.534,0l2.294-2.3a1.084,1.084,0,0,0,0-1.533l-9-9a.562.562,0,0,1-.024-.792.554.554,0,0,1,.38-.152.59.59,0,0,1,.411.176L29.525,25.486a4.473,4.473,0,0,1,1.326,3.134A4.254,4.254,0,0,1,29.6,31.7a1.084,1.084,0,0,0,0,1.533l1.41,1.416,1.533-1.533-.712-.712A6.432,6.432,0,0,0,33.02,28.6a6.634,6.634,0,0,0-1.96-4.645l-5-5a19.541,19.541,0,0,1,17.114-.191A26.506,26.506,0,0,0,36.5,31.6L19.559,48.547A19.478,19.478,0,0,1,15.293,36.4a19.939,19.939,0,0,1,.108-2.037l2.623,2.623a6.652,6.652,0,0,0,4.711,1.958,6.465,6.465,0,0,0,3.737-1.178l.631.631,1.533-1.533L27.3,35.535a1.084,1.084,0,0,0-1.533,0,4.4,4.4,0,0,1-6.213-.078L2.737,18.633a.563.563,0,0,1-.022-.792ZM7.7,36.4a27.032,27.032,0,0,1,1.35-8.386l4.438,4.438a21.562,21.562,0,0,0,4.527,17.637l-3.845,3.844A27,27,0,0,1,7.7,36.4ZM34.811,63.51A26.891,26.891,0,0,1,19.854,58.99l3.926-3.927A21.621,21.621,0,0,0,44.5,55.8L48.5,59.791A27,27,0,0,1,34.811,63.51Zm24.172,1.4a1.654,1.654,0,0,1-2.339-.039L36.783,45.013,35.25,46.546l7.626,7.626a19.481,19.481,0,0,1-17.511-.7L51.89,26.953A19.468,19.468,0,0,1,49.1,49.663L40.644,41.2,39.11,42.738,58.945,62.574A1.657,1.657,0,0,1,58.983,64.913ZM61.919,36.4a26.891,26.891,0,0,1-7.437,18.642L50.635,51.2a21.6,21.6,0,0,0,2.837-25.823L57.4,21.445A26.879,26.879,0,0,1,61.919,36.4ZM67.2,8.575l-55.6,55.6a1.827,1.827,0,0,1-2.546.245,1.48,1.48,0,0,1-.407-1.156,2.169,2.169,0,0,1,.651-1.39L38.273,32.9a1.084,1.084,0,0,0,.3-.57A24.873,24.873,0,0,1,52.886,14.421L67.048,8.14a.27.27,0,0,1,.271,0C67.383,8.2,67.368,8.408,67.2,8.575Z" transform="translate(-0.391 -5.93)"/></g></g></svg>