<svg xmlns="http://www.w3.org/2000/svg" xmlns:xlink="http://www.w3.org/1999/xlink" width="44" height="45" viewBox="0 0 44 45"><defs><style>.a{fill:#c44829;}.b{clip-path:url(#a);}</style><clipPath id="a"><rect class="a" width="44" height="45" transform="translate(-0.122 -0.397)"/></clipPath></defs><g class="b" transform="translate(0.122 0.397)"><g transform="translate(-0.287 6.511)"><path class="a" d="M2.313,66.8H5.134a.539.539,0,0,0,.539-.539v-8.75h6.566v8.75a.539.539,0,0,0,.539.539H15.6a.539.539,0,0,0,.539-.539V56.335a2.723,2.723,0,0,0-2.72-2.72H5.672V43.435a3.363,3.363,0,0,0-3.359-3.359.539.539,0,0,0-.539.539V66.262A.539.539,0,0,0,2.313,66.8Zm2.282-1.077H2.852V57.512H4.595ZM2.852,41.217a2.286,2.286,0,0,1,1.743,2.218V54.153a.539.539,0,0,0,.539.539h8.282a1.645,1.645,0,0,1,1.643,1.643v9.389H13.316v-8.75a.539.539,0,0,0-.539-.539H2.852Z" transform="translate(-1.774 -35.618)"/><path class="a" d="M81.054,40.075a3.363,3.363,0,0,0-3.359,3.359v10.18H69.951a2.723,2.723,0,0,0-2.721,2.72v9.928a.539.539,0,0,0,.539.539H70.59a.539.539,0,0,0,.539-.539v-8.75h6.566v8.75a.539.539,0,0,0,.539.539h2.821a.539.539,0,0,0,.539-.539V40.614A.539.539,0,0,0,81.054,40.075ZM70.59,56.435a.539.539,0,0,0-.539.539v8.75H68.308V56.335a1.645,1.645,0,0,1,1.643-1.643h8.282a.539.539,0,0,0,.539-.539V43.435a2.286,2.286,0,0,1,1.743-2.218V56.435H70.59Zm9.925,9.289H78.772V57.512h1.743Z" transform="translate(-37.429 -35.618)"/><path class="a" d="M35.326,70.751h2.821a.539.539,0,0,0,.539-.539V51.225h8.828a.539.539,0,0,0,.539-.539V47.866a.539.539,0,0,0-.539-.539H25.96a.539.539,0,0,0-.539.539v2.821a.539.539,0,0,0,.539.539h8.828V70.212A.539.539,0,0,0,35.326,70.751Zm2.282-1.077H35.865V51.225h1.744ZM26.5,48.4H46.975v1.743H26.5Z" transform="translate(-14.655 -39.568)"/><path class="a" d="M38.448,39.083h.036a.539.539,0,0,0,.537-.5,4.571,4.571,0,0,1,2.835-3.911.539.539,0,0,0-.4-1,5.655,5.655,0,0,0-3.506,4.838A.539.539,0,0,0,38.448,39.083Z" transform="translate(-21.477 -32.109)"/><path class="a" d="M25.943,36.733v1.124a.539.539,0,0,0,1.077,0V36.733A2.218,2.218,0,0,0,28.7,34.586V32.908a.539.539,0,0,0-.539-.539H24.8a.539.539,0,0,0-.539.539v1.678a2.218,2.218,0,0,0,1.678,2.148Zm-.6-3.287h2.279v1.139a1.139,1.139,0,0,1-2.279,0Z" transform="translate(-14.025 -31.42)"/><path class="a" d="M68.225,36.733v1.124a.539.539,0,0,0,1.077,0V36.733a2.218,2.218,0,0,0,1.678-2.148V32.908a.539.539,0,0,0-.539-.539H67.085a.539.539,0,0,0-.539.539v1.678A2.218,2.218,0,0,0,68.225,36.733Zm-.6-3.287H69.9v1.139a1.139,1.139,0,0,1-2.279,0Z" transform="translate(-37.056 -31.42)"/><path class="a" d="M49.63,32.518a4.556,4.556,0,0,1,4.538,4.24.539.539,0,0,0,.537.5h.036a.539.539,0,0,0,.5-.573,5.638,5.638,0,0,0-5.074-5.22v-.643a.539.539,0,1,0-1.077,0v1.156A.539.539,0,0,0,49.63,32.518Z" transform="translate(-27.548 -30.285)"/></g></g></svg>