<svg xmlns="http://www.w3.org/2000/svg" xmlns:xlink="http://www.w3.org/1999/xlink" width="91" height="91" viewBox="0 0 91 91"><defs><style>.a,.c{fill:#c44829;}.a{stroke:#707070;}.b{clip-path:url(#a);}</style><clipPath id="a"><rect class="a" width="91" height="91" transform="translate(0.408 -0.057)"/></clipPath></defs><g class="b" transform="translate(-0.408 0.057)"><g transform="translate(1 0.44)"><g transform="translate(0 57.42)"><path class="c" d="M88.228,78.537H1.5A1.5,1.5,0,0,0,0,80.047a31.6,31.6,0,0,0,31.4,31.729H58.322a31.6,31.6,0,0,0,31.4-31.729A1.5,1.5,0,0,0,88.228,78.537ZM58.322,108.754H31.406a28.578,28.578,0,0,1-28.372-27.2h83.66A28.578,28.578,0,0,1,58.322,108.754Z" transform="translate(-0.004 -78.537)"/></g><g transform="translate(31.401 0)"><path class="c" d="M88.267,21.168c0-.11,0-.221-.012-.388a6.262,6.262,0,0,0-4.185-5.335l1.693-1.71A8.153,8.153,0,0,0,86.423,2.9a7.805,7.805,0,0,0-11.052-1.08c-.19.159-.374.326-.558.512L72.974,4.217A6.253,6.253,0,0,0,67.646.009a6,6,0,0,0-6.294,5.713c-.006.11-.008.221-.008.329V8.368a5.9,5.9,0,0,0-2.985-.813c-.108,0-.218,0-.384.012a6.238,6.238,0,0,0-5.6,6.294v2.055a5.914,5.914,0,0,0-2.985-.807c-.108,0-.217,0-.383.012a6.238,6.238,0,0,0-5.6,6.294V43.822a1.5,1.5,0,0,0,1.5,1.511h25.42a6.051,6.051,0,0,0,5.177-9.062h2.02a6.213,6.213,0,0,0,6.259-5.722,6.055,6.055,0,0,0-.818-3.381,5.919,5.919,0,0,0,3.554-1.727A6.036,6.036,0,0,0,88.267,21.168ZM84.4,23.3a2.96,2.96,0,0,1-2.114.881H77.793a1.511,1.511,0,0,0,0,3.022l.165,0a3,3,0,0,1,2.832,3.12,3.2,3.2,0,0,1-3.251,2.919H70.317a1.511,1.511,0,0,0,0,3.022,3.022,3.022,0,0,1,0,6.044H46.392V21.39a3.211,3.211,0,0,1,2.832-3.255l.163,0a3.008,3.008,0,0,1,2.986,3.017v.011a1.5,1.5,0,0,0,1.494,1.511h0a1.5,1.5,0,0,0,1.5-1.509h0V13.835A3.211,3.211,0,0,1,58.2,10.581l.162,0a3.011,3.011,0,0,1,2.988,3.02v.009a1.5,1.5,0,0,0,1.494,1.511h0a1.5,1.5,0,0,0,1.5-1.509V6.051l0-.168a2.976,2.976,0,0,1,3.086-2.862A3.224,3.224,0,0,1,70.316,6.31V7.564a1.511,1.511,0,0,0,.929,1.4,1.481,1.481,0,0,0,1.631-.338l4.057-4.16c.111-.11.224-.215.342-.313A4.828,4.828,0,0,1,84.1,4.8a5.113,5.113,0,0,1-.438,6.789l-3.933,3.974a1.523,1.523,0,0,0-.325,1.647,1.5,1.5,0,0,0,1.382.932H82.1A3.2,3.2,0,0,1,85.272,21l0,.166A3.019,3.019,0,0,1,84.4,23.3Z" transform="translate(-43.4 0)"/></g><g transform="translate(22.641 9.511)"><g transform="translate(0 0)"><path class="c" d="M.016.308,59.535,0l-.016,3.006L0,3.314Z" transform="translate(0 42.097) rotate(-45)"/></g></g><g transform="translate(55.324 12.102)"><rect class="c" width="2.991" height="7.555"/></g><g transform="translate(46.352 19.657)"><rect class="c" width="2.991" height="9.065"/></g><g transform="translate(37.38 27.196)"><rect class="c" width="2.991" height="10.576"/></g><g transform="translate(56.819 18.146)"><rect class="c" width="7.477" height="3.022"/></g><g transform="translate(47.847 27.196)"><rect class="c" width="8.972" height="3.022"/></g><g transform="translate(38.875 36.261)"><rect class="c" width="10.467" height="3.022"/></g><g transform="translate(5.415 3.442)"><path class="c" d="M29.983,8.255l-.006-.009A6.856,6.856,0,0,0,20.42,6.318c-.1.065-.2.134-.306.218l-.538.414-.517-.376a6.835,6.835,0,0,0-9.643.257,6.975,6.975,0,0,0,1.448,10.806l1.259.994V19.4a7.476,7.476,0,1,0,14.952,0v-.774L28.4,17.585A7,7,0,0,0,29.983,8.255Zm-3.411,6.937L24.658,16.7a1.517,1.517,0,0,0-.574,1.191V19.4a4.486,4.486,0,1,1-8.972,0V17.894a1.513,1.513,0,0,0-.574-1.191l-1.914-1.511a1.471,1.471,0,0,0-.181-.122,3.854,3.854,0,0,1-.775-.586,3.956,3.956,0,0,1-.1-5.554,3.864,3.864,0,0,1,5.5-.1,1.582,1.582,0,0,0,.163.137l1.5,1.088a1.482,1.482,0,0,0,1.778-.023l1.576-1.2a3.877,3.877,0,0,1,5.409,1.085A3.957,3.957,0,0,1,26.572,15.192Z" transform="translate(-7.487 -4.708)"/></g><g transform="translate(32.894 1.511)"><rect class="c" width="2.991" height="3.022"/></g><g transform="translate(41.866 49.86)"><rect class="c" width="2.991" height="3.022"/></g><g transform="translate(80.747 9.073)"><path class="c" d="M111.6,12.41v3.022a3.022,3.022,0,0,1,0,6.044V24.5a6.044,6.044,0,0,0,0-12.087Z" transform="translate(-111.597 -12.41)"/></g><g transform="translate(2.988 22.678)"><rect class="c" width="2.991" height="3.022"/></g><g transform="translate(0 16.635)"><rect class="c" width="2.991" height="3.022"/></g><g transform="translate(52.336 48.355)"><path class="c" d="M78.314,66.137a6.019,6.019,0,0,0-5.981,6.044h2.991a2.991,2.991,0,1,1,5.981,0H84.3A6.019,6.019,0,0,0,78.314,66.137Z" transform="translate(-72.333 -66.137)"/></g><g transform="translate(0 30.224)"><path class="c" d="M17.948,45.872H17.76a5.968,5.968,0,0,0-11.586,0H5.986a6.044,6.044,0,0,0,0,12.087H17.948a6.044,6.044,0,0,0,0-12.087Zm0,9.067H5.985a3.022,3.022,0,0,1,0-6.044h1.5a1.5,1.5,0,0,0,1.5-1.511,2.991,2.991,0,1,1,5.981,0,1.5,1.5,0,0,0,1.5,1.511h1.5a3.022,3.022,0,0,1,0,6.044Z" transform="translate(-0.004 -41.339)"/></g><g transform="translate(7.477 43.822)"><path class="c" d="M17.813,59.938H11.832a1.5,1.5,0,0,0-1.5,1.511v6.044A1.5,1.5,0,0,0,11.832,69h5.981a1.5,1.5,0,0,0,1.5-1.511V61.449A1.5,1.5,0,0,0,17.813,59.938Zm-1.5,6.044H13.328V62.96h2.991v3.022Z" transform="translate(-10.337 -59.938)"/></g><g transform="translate(74.766 39.289)"><path class="c" d="M107.817,53.738a4.533,4.533,0,1,0,4.486,4.533A4.515,4.515,0,0,0,107.817,53.738Zm0,6.045a1.511,1.511,0,1,1,1.5-1.511A1.5,1.5,0,0,1,107.817,59.783Z" transform="translate(-103.331 -53.738)"/></g><g transform="translate(68.785 33.246)"><path class="c" d="M105.532,45.472A10.577,10.577,0,1,0,116,56.048,10.535,10.535,0,0,0,105.532,45.472Zm0,18.132a7.555,7.555,0,1,1,7.477-7.554A7.525,7.525,0,0,1,105.532,63.6Z" transform="translate(-95.065 -45.472)"/></g></g></g></svg>